<svg width="28" height="23" viewBox="0 0 28 23" fill="none" xmlns="http://www.w3.org/2000/svg">
<path d="M28 6.95117V18.35C28.0001 19.5122 27.5554 20.6303 26.7573 21.4751C25.9591 22.3199 24.8679 22.8272 23.7076 22.893L23.45 22.9H4.55C3.38781 22.9 2.26964 22.4554 1.42488 21.6572C0.580113 20.8591 0.0727981 19.7679 0.00700016 18.6076L0 18.35V6.95117L13.5128 14.0296C13.6631 14.1083 13.8303 14.1494 14 14.1494C14.1697 14.1494 14.3369 14.1083 14.4872 14.0296L28 6.95117Z" fill="#E3E4E6" fill-opacity="0.55"/>
<path d="M4.54991 0.5H23.4499C24.5777 0.499864 25.6654 0.918594 26.502 1.67497C27.3385 2.43135 27.8644 3.47147 27.9775 4.5936L13.9999 11.9156L0.0223064 4.5936C0.130839 3.51604 0.620176 2.51252 1.40236 1.76345C2.18454 1.01437 3.20826 0.568862 4.28951 0.507L4.54991 0.5H23.4499H4.54991Z" fill="#E3E4E6" fill-opacity="0.55"/>
</svg>
