<svg width="28" height="26" viewBox="0 0 28 26" fill="none" xmlns="http://www.w3.org/2000/svg">
<path fill-rule="evenodd" clip-rule="evenodd" d="M10.4005 9.28109H15.6001V11.6121C16.3491 10.2715 18.2699 9.06689 21.1553 9.06689C26.6867 9.06689 27.9999 11.7356 27.9999 16.6319V25.7002H22.3999V17.747C22.3999 14.9587 21.6509 13.3862 19.7441 13.3862C17.0995 13.3862 16.0005 15.0809 16.0005 17.7458V25.7002H10.4005V9.28109Z" fill="#E3E4E6" fill-opacity="0.55"/>
<path fill-rule="evenodd" clip-rule="evenodd" d="M0.797913 25.486H6.39791V9.06689H0.797913V25.486Z" fill="#E3E4E6" fill-opacity="0.55"/>
<path fill-rule="evenodd" clip-rule="evenodd" d="M7.2002 3.713C7.20041 4.13545 7.10732 4.55372 6.92634 4.9435C6.74537 5.33329 6.48011 5.68681 6.146 5.98352C5.46896 6.58911 4.55253 6.92809 3.598 6.926C2.64515 6.92543 1.73084 6.58731 1.0528 5.98478C0.719896 5.68706 0.45554 5.33314 0.274881 4.94331C0.0942221 4.55347 0.000810785 4.13538 0 3.713C0 2.85998 0.378 2.0435 1.0542 1.44122C1.73164 0.83788 2.64634 0.499623 3.5994 0.5C4.5542 0.5 5.4698 0.83894 6.146 1.44122C6.8208 2.0435 7.2002 2.85998 7.2002 3.713Z" fill="#E3E4E6" fill-opacity="0.55"/>
</svg>
